<svg width="64" height="64" viewBox="0 0 64 64" fill="none" xmlns="http://www.w3.org/2000/svg">
<path d="M50.0562 28.0479C49.4065 28.0479 48.7834 27.791 48.324 27.3337C47.8646 26.8765 47.6065 26.2563 47.6065 25.6096C47.6065 24.4379 46.4294 21.9996 44.4569 19.8779C42.5163 17.8196 40.3847 16.6163 38.6032 16.6163C37.9535 16.6163 37.3304 16.3594 36.871 15.9021C36.4116 15.4448 36.1535 14.8246 36.1535 14.1779C36.1535 12.8479 37.267 11.7396 38.6032 11.7396C41.7846 11.7396 45.125 13.4496 48.0519 16.5213C50.7879 19.4029 52.5377 22.9813 52.5377 25.5779C52.5377 26.9396 51.4242 28.0479 50.0562 28.0479ZM61.541 28.0416C60.8913 28.0416 60.2682 27.7847 59.8088 27.3274C59.3494 26.8701 59.0913 26.2499 59.0913 25.6032C59.0913 14.3616 49.8971 5.24158 38.635 5.24158C37.9853 5.24158 37.3622 4.98469 36.9028 4.52741C36.4434 4.07014 36.1853 3.44994 36.1853 2.80325C36.1853 1.47325 37.267 0.333252 38.6032 0.333252C52.6013 0.333252 63.9907 11.6699 63.9907 25.6032C63.9907 26.9332 62.8772 28.0416 61.541 28.0416ZM29.1544 41.3416L23.2688 47.1999C22.0281 48.4349 20.0556 48.4349 18.7831 47.2316C18.4331 46.8832 18.0832 46.5666 17.7332 46.2183C14.5161 42.9946 11.5489 39.533 8.85712 35.8633C6.24837 32.2533 4.14865 28.6433 2.62158 25.0649C1.12633 21.4549 0.362793 18.0033 0.362793 14.7099C0.362793 12.5566 0.74456 10.4983 1.50809 8.59825C2.27163 6.66659 3.48056 4.89325 5.1667 3.30992C7.20279 1.31492 9.42977 0.333252 11.784 0.333252C12.6748 0.333252 13.5656 0.523252 14.3609 0.903252C15.1881 1.28325 15.9198 1.85325 16.4925 2.67659L23.8733 13.0316C24.446 13.8233 24.8595 14.5516 25.1459 15.2483C25.4322 15.9133 25.5913 16.5783 25.5913 17.1799C25.5913 17.9399 25.3686 18.6999 24.9232 19.4282C24.5096 20.1566 23.9051 20.9166 23.1416 21.6766L20.7237 24.1782C20.3738 24.5266 20.2147 24.9383 20.2147 25.4449C20.2147 25.6983 20.2465 25.9199 20.3101 26.1733C20.4056 26.4266 20.501 26.6166 20.5647 26.8066C21.1373 27.8516 22.1235 29.2133 23.5233 30.8599C24.955 32.5066 26.482 34.1849 28.1364 35.8633C28.4545 36.1799 28.8045 36.4966 29.1226 36.8133C30.3952 38.0483 30.427 40.0749 29.1544 41.3416ZM63.8952 52.0449C63.891 53.24 63.6193 54.4191 63.0999 55.4966C62.5591 56.6366 61.8592 57.7132 60.9366 58.7266C59.3777 60.4366 57.6597 61.6716 55.7191 62.4633C55.6873 62.4633 55.6554 62.4949 55.6236 62.4949C53.7466 63.2549 51.7105 63.6666 49.5154 63.6666C46.2703 63.6666 42.8026 62.9066 39.144 61.3549C35.4854 59.8032 31.8268 57.7133 28.2 55.0849C26.9593 54.1666 25.7185 53.2482 24.5414 52.2666L34.9446 41.9116C35.8353 42.5766 36.6307 43.0832 37.2988 43.4316C37.4579 43.4949 37.6487 43.5899 37.8714 43.6849C38.126 43.7799 38.3805 43.8116 38.6668 43.8116C39.2076 43.8116 39.6212 43.6216 39.9712 43.2733L42.389 40.8983C43.1844 40.1066 43.9479 39.5049 44.6796 39.1249C45.4113 38.6816 46.1431 38.4599 46.9384 38.4599C47.5429 38.4599 48.1792 38.5866 48.8791 38.8716C49.579 39.1566 50.3107 39.5683 51.106 40.1066L61.6365 47.5482C62.4636 48.1182 63.0363 48.7832 63.3862 49.5749C63.7044 50.3666 63.8952 51.1582 63.8952 52.0449Z" fill="white"/>
</svg>
