<svg width="23" height="23" viewBox="0 0 23 23" fill="none" xmlns="http://www.w3.org/2000/svg">
<path fill-rule="evenodd" clip-rule="evenodd" d="M21.722 22.991C22.4227 22.991 22.9908 22.4228 22.9908 21.7221V1.26888C22.9908 0.567936 22.4226 0 21.722 0H1.26888C0.567936 0 0 0.568022 0 1.26888V21.722C0 22.4228 0.567936 22.9909 1.26888 22.9909H21.722V22.991ZM15.8633 22.991V14.0876H18.8517L19.2992 10.6178H15.8632V8.40249C15.8632 7.3979 16.1421 6.71333 17.5828 6.71333L19.4201 6.71247V3.6091C19.1023 3.5669 18.0116 3.4724 16.7428 3.4724C14.0937 3.4724 12.28 5.08937 12.28 8.05896V10.6178H9.2839V14.0876H12.28V22.9909H15.8633V22.991Z" fill="white"/>
</svg>
