<svg width="63" height="69" viewBox="0 0 63 69" fill="none" xmlns="http://www.w3.org/2000/svg">
<path d="M58.185 29.873L42.4238 23.0892L38.9138 21.6042C38.6263 21.445 38.3832 21.2165 38.2064 20.9395C38.0296 20.6625 37.9247 20.3457 37.9013 20.018V9.69047C37.9013 6.45047 35.505 2.60297 32.6025 1.11797C31.59 0.611719 30.375 0.611719 29.3625 1.11797C26.4938 2.60297 24.0975 6.48422 24.0975 9.72422V20.0517C24.0975 20.6592 23.625 21.368 23.085 21.638L3.84753 29.9067C1.72128 30.7842 3.05176e-05 33.4505 3.05176e-05 35.7455V40.2005C3.05176e-05 43.0692 2.16003 44.4867 4.82628 43.3392L21.735 36.0492C23.0513 35.4755 24.1313 36.1842 24.1313 37.6355V47.4567C24.1313 48.233 23.6925 49.3467 23.1525 49.8867L15.3225 57.7505C14.5125 58.5605 14.1413 60.1467 14.5125 61.2942L16.0313 65.8842C16.6388 67.8755 18.9 68.8205 20.7563 67.8755L28.7888 61.1255C30.0038 60.0792 31.995 60.0792 33.21 61.1255L41.2425 67.8755C43.0988 68.7867 45.36 67.8755 46.035 65.8842L47.5538 61.2942C47.925 60.1805 47.5538 58.5605 46.7438 57.7505L38.9138 49.8867C38.34 49.3467 37.9013 48.233 37.9013 47.4567V37.6355C37.9013 36.1842 38.9475 35.5092 40.2975 36.0492L57.2063 43.3392C59.8725 44.4867 62.0325 43.0692 62.0325 40.2005V35.7455C62.0325 33.4505 60.3113 30.7842 58.185 29.873Z" fill="white"/>
</svg>
