<svg width="77" height="76" viewBox="0 0 77 76" fill="none" xmlns="http://www.w3.org/2000/svg">
<path d="M56.1984 16.8181L38.3068 7.19142C37.3768 6.69249 36.3379 6.4314 35.2826 6.4314C34.2273 6.4314 33.1883 6.69249 32.2584 7.19142L14.3984 16.8181C13.1001 17.5464 12.2768 18.9398 12.2768 20.4598C12.2768 22.0114 13.0684 23.4048 14.3984 24.1014L32.2901 33.7281C33.2143 34.227 34.2481 34.4882 35.2984 34.4882C36.3487 34.4882 37.3825 34.227 38.3068 33.7281L56.1984 24.1014C57.4968 23.4048 58.3201 22.0114 58.3201 20.4598C58.3201 18.9398 57.4968 17.5464 56.1984 16.8181ZM29.3451 37.0816L12.7201 28.7849C12.0982 28.468 11.4054 28.3161 10.708 28.344C10.0105 28.3719 9.33201 28.5786 8.73747 28.9442C8.14293 29.3099 7.65234 29.8222 7.31279 30.432C6.97324 31.0418 6.79611 31.7286 6.79842 32.4266V48.1333C6.79842 50.8566 8.31842 53.2949 10.7568 54.5299L27.3818 62.8266C27.9518 63.1116 28.5851 63.2699 29.2184 63.2699C29.9468 63.2699 30.7068 63.0483 31.3718 62.6683C32.5751 61.9083 33.3034 60.6099 33.3034 59.1849V43.4783C33.2718 40.7549 31.7518 38.3166 29.3451 37.0816ZM63.7984 32.4266V40.2166C62.2784 39.7732 60.6634 39.5833 59.0484 39.5833C54.7418 39.5833 50.5301 41.0716 47.2051 43.7316C42.6451 47.3099 40.0484 52.7249 40.0484 58.5833C40.0484 60.1349 40.2384 61.6866 40.6501 63.1749C40.1751 63.1116 39.7001 62.9216 39.2568 62.6366C38.0534 61.9083 37.3251 60.6099 37.3251 59.1849V43.4783C37.3251 40.7549 38.8451 38.3166 41.2518 37.0816L57.8768 28.7849C58.4986 28.468 59.1915 28.3161 59.8889 28.344C60.5863 28.3719 61.2648 28.5786 61.8594 28.9442C62.4539 29.3099 62.9445 29.8222 63.2841 30.432C63.6236 31.0418 63.8007 31.7286 63.7984 32.4266Z" fill="white"/>
<path d="M70.0684 49.5583C68.7387 47.9194 67.0585 46.5992 65.1515 45.695C63.2444 44.7908 61.159 44.3255 59.0484 44.3333C55.6918 44.3333 52.5884 45.505 50.1501 47.4683C48.4732 48.7936 47.1199 50.4831 46.1927 52.4088C45.2655 54.3345 44.7887 56.446 44.7984 58.5833C44.7984 63.0483 46.8251 67.0067 50.0234 69.6033C52.4618 71.63 55.6284 72.8333 59.0484 72.8333C62.6584 72.8333 65.9201 71.4717 68.4534 69.2867C69.9723 67.9469 71.1895 66.3001 72.0247 64.455C72.8599 62.61 73.2941 60.6086 73.2984 58.5833C73.2984 55.1633 72.0951 51.9967 70.0684 49.5583ZM62.3101 59.47C62.3101 60.2934 61.8668 61.085 61.1701 61.4967L56.7051 64.1567C56.3251 64.3783 55.9134 64.505 55.4701 64.505C54.6784 64.505 53.8868 64.0933 53.4434 63.365C52.7784 62.225 53.1268 60.7683 54.2668 60.1033L57.5601 58.14V54.15C57.5601 52.8517 58.6368 51.775 59.9351 51.775C61.2334 51.775 62.3101 52.8517 62.3101 54.15V59.47Z" fill="white"/>
</svg>
