<svg width="82" height="51" viewBox="0 0 82 51" fill="none" xmlns="http://www.w3.org/2000/svg">
<g clip-path="url(#clip0_1_14)">
<path d="M13.301 13.5584H18.3836C18.5344 12.8885 18.6097 12.2559 18.6097 11.6232C18.6097 7.56688 15.3358 5.63174 11.0402 5.63174C6.0288 5.63174 2.86368 8.90659 2.86368 13.8933C2.86368 16.4239 3.99408 18.5823 7.12152 20.5919C9.72143 22.2665 10.6258 23.3085 10.6258 24.8715C10.6258 26.8811 9.57071 28.0347 7.68672 28.0347C5.80272 28.0347 5.0868 27.0671 5.0868 25.8018C5.0868 25.5413 5.12448 25.2808 5.16216 25.0203L5.35056 24.1272H0.30144L0.22608 24.5366C0.07536 25.2064 0 25.8391 0 26.4345C0 30.528 3.3912 32.426 7.76208 32.426C13.075 32.426 16.0852 29.0395 16.0852 23.8667C16.0852 21.3361 15.0301 19.1777 11.9069 17.2054C9.26927 15.5307 8.28959 14.4143 8.28959 12.9257C8.28959 11.2511 9.34464 10.023 11.0026 10.023C12.2837 10.023 13.5271 10.6557 13.5271 12.1814C13.5271 12.4792 13.4852 12.7769 13.4141 13.1118L13.301 13.5584Z" fill="white"/>
<path d="M26.3174 6.00391L20.7031 32.0538H25.9029L31.5172 6.00391H26.3174Z" fill="white"/>
<path d="M61.657 20.2942C61.7324 19.922 61.8454 19.2894 61.8454 18.4707C61.8454 14.5259 58.7556 12.7025 54.8746 12.7025C50.6168 12.7025 47.9038 14.8609 47.0372 18.88L45.756 24.7226C45.6053 25.3925 45.53 26.1368 45.53 26.7322C45.53 30.5653 48.8835 32.426 52.6892 32.426C57.0224 32.426 59.4339 30.1187 60.3382 26.2112L60.7527 24.4249H55.7412L55.4021 26.0624C55.1384 27.2904 54.3848 28.1091 52.9529 28.1091C51.5211 28.1091 50.6921 27.3649 50.6921 26.2112C50.6921 25.9879 50.7298 25.7646 50.7675 25.5786L52.1993 19.1033C52.5008 17.7636 53.292 17.0193 54.7239 17.0193C56.1557 17.0193 56.9093 17.7636 56.9093 18.88C56.9093 19.1405 56.8716 19.401 56.6456 20.2942H61.657Z" fill="white"/>
<path d="M74.6524 12.7025C70.2438 12.7025 67.7193 14.9353 66.8526 18.9172L65.6092 24.6854C65.4962 25.2064 65.3831 25.8763 65.3831 26.6206C65.3831 30.6025 68.7366 32.426 72.693 32.426C77.2146 32.426 80.0406 30.0071 80.6058 25.8019H75.7074C75.4437 27.4765 74.577 28.2952 73.0698 28.2952C71.5626 28.2952 70.5076 27.737 70.5076 26.3973C70.5076 26.174 70.5453 25.9507 70.583 25.7646L70.9974 23.7923H81.058L81.7739 20.443C81.9246 19.7359 82 19.1405 82 18.5079C82 14.5259 78.6465 12.7025 74.6524 12.7025ZM76.9509 19.3266L76.7625 20.2569H71.7887L72.0902 18.8056C72.3916 17.4287 73.2206 16.796 74.6147 16.796C75.8205 16.796 77.0262 17.2426 77.0262 18.6939C77.0262 18.9544 76.9886 19.1033 76.9509 19.3266Z" fill="white"/>
<path d="M45.9319 0L41.9169 18.6278L36.9222 17.6726L40.2757 2.1088L40.732 0H45.9319Z" fill="white"/>
<path d="M34.9754 50.1523C34.0041 48.1138 33.0997 46.034 32.5011 43.8466C31.2827 39.4222 31.2702 34.9359 31.8982 30.4577C32.4508 26.5337 33.2547 22.651 33.9496 18.7435C33.9706 18.6443 33.9706 18.6691 33.9706 18.665L35.3605 18.9213C35.3187 19.1446 35.3103 19.1942 35.2684 19.4175C34.4855 23.5152 33.6691 27.6088 33.2756 31.7685C32.9407 35.217 32.8067 38.6697 33.1793 42.1265C33.2044 42.3373 33.2421 42.54 33.2714 42.7508C33.2798 42.9493 33.4221 43.1726 33.4221 43.1726C33.4221 43.1726 33.4179 42.9576 33.4054 42.7467C32.7606 34.6051 34.519 26.7487 36.2272 19.0661C38.1112 19.4175 39.8947 19.7566 41.607 20.0791C39.5723 30.3337 37.412 40.642 35.3605 51L34.9796 50.1565L34.9754 50.1523Z" fill="white"/>
</g>
<defs>
<clipPath id="clip0_1_14">
<rect width="82" height="51" fill="white"/>
</clipPath>
</defs>
</svg>
